STARTFONT 2.1
FONT -Monotype-Century Schoolbook-Bold-R-Normal--36-360-75-75-P-199-iso8859-2
SIZE 36 75 75
FONTBOUNDINGBOX 45 47 -7 -9

STARTPROPERTIES 24
FOUNDRY "Monotype"
FAMILY_NAME "Century Schoolbook"
WEIGHT_NAME "Bold"
SLANT "R"
SETWIDTH_NAME "Normal"
ADD_STYLE_NAME ""
PIXEL_SIZE 36
POINT_SIZE 360
RESOLUTION_X 75
RESOLUTION_Y 75
SPACING "P"
AVERAGE_WIDTH 199
CHARSET_REGISTRY "iso8859"
CHARSET_ENCODING "2"
FACE_NAME "Century Schoolbook Bold ISO Latin2"
_DEC_DEVICE_FONTNAMES "PS=centuryschoolbook-b-lat2"
COPYRIGHT "Copyright (c) 1993 Monotype Typography Ltd."
CAP_HEIGHT 33
X_HEIGHT 21
WEIGHT 10
QUAD_WIDTH 23
DEFAULT_CHAR 160
FONT_DESCENT 9
FONT_ASCENT 38
ENDPROPERTIES

CHARS 191

STARTCHAR space
ENCODING 32
SWIDTH 287 0
DWIDTH 11 0
BBX 0 0 0 0
BITMAP
ENDCHAR

STARTCHAR exclam
ENCODING 33
SWIDTH 296 0
DWIDTH 11 0
BBX 6 29 3 0
BITMAP
10
78
FC
FC
FC
FC
FC
FC
F8
78
78
78
78
30
30
30
30
30
30
30
30
00
00
78
FC
FC
FC
FC
78
ENDCHAR

STARTCHAR quotedbl
ENCODING 34
SWIDTH 333 0
DWIDTH 13 0
BBX 12 12 0 14
BITMAP
F0F0
F9F0
F9F0
F9F0
F9F0
F0E0
70E0
70E0
70E0
7060
2040
2040
ENDCHAR

STARTCHAR numbersign
ENCODING 35
SWIDTH 574 0
DWIDTH 22 0
BBX 21 27 0 1
BITMAP
01C0E0
01C1E0
01C1C0
0381C0
0381C0
0381C0
0383C0
038380
FFFFF8
FFFFF8
FFFFF8
070380
070700
0E0700
0E0700
0E0700
0E0E00
FFFFF8
FFFFF8
FFFFF8
1C0E00
1C1E00
3C1C00
381C00
381C00
381C00
783800
ENDCHAR

STARTCHAR dollar
ENCODING 36
SWIDTH 574 0
DWIDTH 22 0
BBX 18 33 2 -5
BITMAP
00C000
00C000
07FC00
1ECE00
38C700
30C780
70CF80
70CF80
70CF80
78C700
7CC000
7FC000
3FC000
3FF000
1FFC00
07FE00
01FF00
00FF80
00CFC0
30C7C0
7CC3C0
FCC1C0
FCC1C0
FCC1C0
78C380
70C700
3CDE00
0FFC00
00C000
00C000
00C000
00C000
00C000
ENDCHAR

STARTCHAR percent
ENCODING 37
SWIDTH 833 0
DWIDTH 32 0
BBX 27 27 2 0
BITMAP
1F000000
3B800600
71C00C00
71C00800
F1E01800
F1E03000
F1E02000
F1E04000
F1E0C000
71E08000
71C10000
71C30000
3B860000
1F040000
000C1F00
00183B80
001071C0
003071C0
0060F1E0
0040F1E0
0080F1E0
0180F1E0
0100F1E0
020071C0
060071C0
0C003B80
08001F00
ENDCHAR

STARTCHAR ampersand
ENCODING 38
SWIDTH 852 0
DWIDTH 32 0
BBX 28 28 2 0
BITMAP
003E0000
00FF8000
01E3C000
03C1E000
03C1E000
07C1E000
07C1E000
07C1C000
07E38000
03E70000
03FE0000
01F80000
01F83FF0
07F83FF0
1EFC0F80
3C7E0700
7C7E0600
783F0600
F81F8C00
F81FDC00
F80FD800
FC07F010
FC03F830
7E01FC30
7F83FFF0
3FFF7FE0
1FFC3FC0
07E00F00
ENDCHAR

STARTCHAR quoteright
ENCODING 39
SWIDTH 241 0
DWIDTH 9 0
BBX 7 12 1 16
BITMAP
78
FC
FE
FE
FE
7E
06
0E
0C
18
30
E0
ENDCHAR

STARTCHAR parenleft
ENCODING 40
SWIDTH 389 0
DWIDTH 15 0
BBX 11 35 3 -7
BITMAP
0020
0060
00C0
01C0
0380
0700
0F00
1E00
1E00
3E00
3E00
7C00
7C00
7C00
FC00
FC00
FC00
FC00
FC00
FC00
FC00
7C00
7C00
7C00
3E00
3E00
1E00
1E00
0F00
0700
0380
01C0
00C0
0060
0020
ENDCHAR

STARTCHAR parenright
ENCODING 41
SWIDTH 389 0
DWIDTH 15 0
BBX 11 35 1 -7
BITMAP
8000
C000
6000
7000
3800
1C00
1E00
0F00
0F00
0F80
07C0
07C0
07C0
07E0
07E0
07E0
07E0
07E0
07E0
07E0
07E0
07C0
07C0
07C0
0F80
0F80
0F00
0F00
1E00
1C00
3800
7000
6000
C000
8000
ENDCHAR

STARTCHAR asterisk
ENCODING 42
SWIDTH 500 0
DWIDTH 19 0
BBX 17 18 1 11
BITMAP
008000
01E000
03E000
03E000
03E000
61C300
F9CF80
FC9F80
FEBF80
FFFF80
01C000
036000
0F7800
1F7C00
3E3E00
3E3E00
1E3C00
000800
ENDCHAR

STARTCHAR plus
ENCODING 43
SWIDTH 606 0
DWIDTH 23 0
BBX 20 21 1 2
BITMAP
00F000
00F000
00F000
00F000
00F000
00F000
00F000
00F000
00F000
FFFFF0
FFFFF0
FFFFF0
00F000
00F000
00F000
00F000
00F000
00F000
00F000
00F000
00F000
ENDCHAR

STARTCHAR comma
ENCODING 44
SWIDTH 278 0
DWIDTH 11 0
BBX 7 13 2 -7
BITMAP
78
FC
FE
FE
FE
7E
06
0E
0C
18
30
E0
40
ENDCHAR

STARTCHAR minus
ENCODING 45
SWIDTH 606 0
DWIDTH 23 0
BBX 21 3 1 11
BITMAP
FFFFF8
FFFFF8
FFFFF8
ENDCHAR

STARTCHAR period
ENCODING 46
SWIDTH 278 0
DWIDTH 11 0
BBX 6 6 2 0
BITMAP
78
FC
FC
FC
FC
78
ENDCHAR

STARTCHAR slash
ENCODING 47
SWIDTH 278 0
DWIDTH 11 0
BBX 12 28 -1 0
BITMAP
0070
00F0
00E0
00E0
01E0
01E0
01C0
03C0
03C0
0380
0380
0780
0700
0700
0F00
0F00
0E00
1E00
1E00
1C00
1C00
3C00
3800
3800
7800
7800
7000
F000
ENDCHAR

STARTCHAR zero
ENCODING 48
SWIDTH 574 0
DWIDTH 22 0
BBX 18 27 2 0
BITMAP
01E000
07F800
0F1C00
1E1E00
3E1F00
3C0F00
7C0F80
7C0F80
7C0F80
7C0FC0
FC0FC0
FC0FC0
FC0FC0
FC0FC0
FC0FC0
FC0FC0
FC0FC0
7C0FC0
7C0F80
7C0F80
7C0F80
3C0F00
3E1F00
1E1E00
0F3C00
07F800
01E000
ENDCHAR

STARTCHAR one
ENCODING 49
SWIDTH 574 0
DWIDTH 22 0
BBX 15 26 4 0
BITMAP
00C0
07C0
FFC0
FFC0
07C0
07C0
07C0
07C0
07C0
07C0
07C0
07C0
07C0
07C0
07C0
07C0
07C0
07C0
07C0
07C0
07C0
07C0
07C0
07C0
FFFE
FFFE
ENDCHAR

STARTCHAR two
ENCODING 50
SWIDTH 574 0
DWIDTH 22 0
BBX 17 27 2 0
BITMAP
03F000
0FFC00
187E00
303F00
601F00
601F80
781F80
7E1F80
7E1F80
7E1F80
3E1F00
183F00
003E00
007C00
00F800
00F000
01E000
038000
070180
0E0180
0C0180
100380
3FFF80
7FFF80
FFFF80
FFFF80
FFFF80
ENDCHAR

STARTCHAR three
ENCODING 51
SWIDTH 574 0
DWIDTH 22 0
BBX 17 27 3 0
BITMAP
07E000
1FF800
387E00
703E00
783F00
7C1F00
7C1F00
7C1F00
3C1F00
001E00
003E00
007800
0FE000
0FF800
007E00
003F00
001F00
301F80
781F80
FC1F80
FC1F80
F81F80
E01F00
703F00
307E00
1FFC00
07E000
ENDCHAR

STARTCHAR four
ENCODING 52
SWIDTH 574 0
DWIDTH 22 0
BBX 18 27 2 0
BITMAP
000C00
001C00
003C00
003C00
007C00
00FC00
01FC00
01BC00
037C00
077C00
067C00
0C7C00
187C00
387C00
307C00
607C00
C07C00
807C00
FFFFC0
FFFFC0
007C00
007C00
007C00
007C00
007C00
07FF80
07FF80
ENDCHAR

STARTCHAR five
ENCODING 53
SWIDTH 574 0
DWIDTH 22 0
BBX 17 27 2 0
BITMAP
300200
3FFE00
3FFE00
3FFC00
3FF800
3FC000
300000
300000
200000
27E000
3FF800
387C00
603E00
603F00
601F00
001F80
001F80
381F80
FC1F80
FC1F80
FC1F80
F81F00
F03F00
603E00
707C00
1FF800
07C000
ENDCHAR

STARTCHAR six
ENCODING 54
SWIDTH 574 0
DWIDTH 22 0
BBX 18 27 2 0
BITMAP
00F800
03FE00
078700
0F0F80
1E0F80
3E0F80
3E0F80
7C0200
7C0000
7C0000
7C7800
FDFE00
FDFF00
FF1F80
FE0FC0
FC0FC0
FC07C0
FC07C0
7C07C0
7C07C0
7C07C0
3C0FC0
3E0F80
1E0F00
0F1F00
07FC00
01F000
ENDCHAR

STARTCHAR seven
ENCODING 55
SWIDTH 574 0
DWIDTH 22 0
BBX 17 27 3 -1
BITMAP
7FFF80
7FFF80
7FFF80
7FFF00
7FFB00
E00600
C00600
C00C00
C00C00
001C00
001800
003800
007800
007000
00F000
00F000
01F000
01F000
01F000
03F000
03E000
03E000
07E000
07E000
07E000
03C000
018000
ENDCHAR

STARTCHAR eight
ENCODING 56
SWIDTH 574 0
DWIDTH 22 0
BBX 18 27 2 0
BITMAP
01F000
07FE00
1E0F00
3C0780
380780
780380
780380
7C0380
7C0700
7F0E00
3FEC00
3FF800
0FFE00
03FF80
0FFF80
1C3FC0
780FC0
7003C0
F003C0
F001C0
F001C0
F001C0
F80380
780380
3E0F00
1FFC00
03F000
ENDCHAR

STARTCHAR nine
ENCODING 57
SWIDTH 574 0
DWIDTH 22 0
BBX 18 27 2 0
BITMAP
03E000
0FF800
3E3E00
3C1E00
7C0F00
780F80
F80F80
F80F80
F80FC0
F80FC0
F80FC0
F80FC0
7C1FC0
7E3FC0
3FF7C0
1FEFC0
070FC0
000F80
000F80
180F80
7C1F00
7C1F00
7C1E00
783C00
3C7800
1FF000
078000
ENDCHAR

STARTCHAR colon
ENCODING 58
SWIDTH 278 0
DWIDTH 11 0
BBX 6 18 2 0
BITMAP
78
FC
FC
FC
FC
78
00
00
00
00
00
00
78
FC
FC
FC
FC
78
ENDCHAR

STARTCHAR semicolon
ENCODING 59
SWIDTH 278 0
DWIDTH 11 0
BBX 7 25 2 -7
BITMAP
3C
7E
7E
7E
7E
3C
00
00
00
00
00
00
78
FC
FE
FE
FE
7E
06
0E
0C
18
30
E0
40
ENDCHAR

STARTCHAR less
ENCODING 60
SWIDTH 606 0
DWIDTH 23 0
BBX 21 21 1 2
BITMAP
000008
000078
0001F8
0007F8
003FE0
00FF80
03FC00
1FF000
7FC000
FE0000
F80000
FF0000
7FC000
0FF800
03FE00
007FC0
001FF0
0007F8
0000F8
000038
000008
ENDCHAR

STARTCHAR equal
ENCODING 61
SWIDTH 606 0
DWIDTH 23 0
BBX 21 12 1 7
BITMAP
FFFFF8
FFFFF8
FFFFF8
000000
000000
000000
000000
000000
000000
FFFFF8
FFFFF8
FFFFF8
ENDCHAR

STARTCHAR greater
ENCODING 62
SWIDTH 606 0
DWIDTH 23 0
BBX 21 21 1 2
BITMAP
800000
E00000
FC0000
FF0000
3FE000
0FF800
01FE00
007FC0
000FF0
0003F8
0000F8
0007F8
001FF0
00FF80
03FE00
1FF000
7FC000
FF0000
F80000
E00000
800000
ENDCHAR

STARTCHAR question
ENCODING 63
SWIDTH 500 0
DWIDTH 19 0
BBX 15 28 2 0
BITMAP
07C0
1FF0
30FC
707C
F03E
FC3E
FC3E
FC3E
783E
107C
007C
00F8
00F0
01E0
01C0
0380
0300
0300
0300
0300
0000
0000
0780
0FC0
0FC0
0FC0
0FC0
0780
ENDCHAR

STARTCHAR at
ENCODING 64
SWIDTH 747 0
DWIDTH 28 0
BBX 28 29 0 -1
BITMAP
001FF000
00F01C00
03C00600
07000100
0C000080
18000040
18000040
300F3860
201CB820
6038F820
6070F020
40F0F020
C0E0F020
C1E1E020
C1E1E020
C1C1E040
C3C3E040
C3C5C080
43CBC100
43FBC210
63F3CC10
21E1F020
30000020
10000040
08000080
04000300
03000600
00C03800
003FC000
ENDCHAR

STARTCHAR A
ENCODING 65
SWIDTH 759 0
DWIDTH 29 0
BBX 29 28 0 0
BITMAP
00070000
00070000
000F8000
000F8000
001F8000
001FC000
001FC000
0037E000
0037E000
0063F000
0063F000
00C3F000
00C1F800
00C1F800
0180FC00
0180FC00
03007E00
03FFFE00
03FFFE00
06003F00
06003F00
0C001F80
0C001F80
1C000F80
1C000FC0
3E000FE0
FFC0FFF8
FFC0FFF8
ENDCHAR

STARTCHAR B
ENCODING 66
SWIDTH 778 0
DWIDTH 30 0
BBX 26 28 2 0
BITMAP
FFFFF000
FFFFFC00
0FC07E00
0FC03F00
0FC01F80
0FC01F80
0FC01F80
0FC01F80
0FC01F80
0FC01F00
0FC03F00
0FC03E00
0FC0F800
0FFFC000
0FFFF800
0FC07E00
0FC01F80
0FC01FC0
0FC00FC0
0FC00FC0
0FC00FC0
0FC00FC0
0FC00FC0
0FC01FC0
0FC01F80
0FC07F00
FFFFFC00
FFFFE000
ENDCHAR

STARTCHAR C
ENCODING 67
SWIDTH 778 0
DWIDTH 30 0
BBX 24 28 3 0
BITMAP
003F02
01FFE6
03E076
07C01F
0F800F
1F000F
3F0007
3F0007
7E0003
7E0003
7E0003
FE0000
FE0000
FE0000
FE0000
FE0000
FE0000
7E0000
7E0001
7F0003
3F0003
3F0003
1F8006
1F800C
0FC01C
03F078
01FFE0
007F80
ENDCHAR

STARTCHAR D
ENCODING 68
SWIDTH 833 0
DWIDTH 32 0
BBX 29 28 1 0
BITMAP
FFFFC000
FFFFFC00
0FC07E00
0FC01F80
0FC00FC0
0FC007C0
0FC007E0
0FC007F0
0FC003F0
0FC003F0
0FC003F8
0FC003F8
0FC003F8
0FC003F8
0FC003F8
0FC003F8
0FC003F8
0FC003F0
0FC003F0
0FC003F0
0FC007F0
0FC007E0
0FC007C0
0FC00FC0
0FC01F80
0FC07E00
FFFFFC00
FFFFE000
ENDCHAR

STARTCHAR E
ENCODING 69
SWIDTH 759 0
DWIDTH 29 0
BBX 25 28 1 0
BITMAP
FFFFFF00
FFFFFF00
0FC01F00
0FC00F00
0FC00700
0FC00700
0FC00300
0FC00300
0FC0C300
0FC0C100
0FC1C000
0FC1C000
0FC3C000
0FFFC000
0FFFC000
0FC3C000
0FC1C000
0FC0C000
0FC0C180
0FC0C180
0FC00180
0FC00180
0FC00380
0FC00780
0FC00F80
0FC01F80
FFFFFF80
FFFFFF80
ENDCHAR

STARTCHAR F
ENCODING 70
SWIDTH 722 0
DWIDTH 27 0
BBX 24 28 2 0
BITMAP
FFFFFF
FFFFFF
0FC01F
0FC007
0FC007
0FC003
0FC003
0FC0C3
0FC0C1
0FC0C0
0FC1C0
0FC3C0
0FFFC0
0FFFC0
0FC3C0
0FC1C0
0FC0C0
0FC0C0
0FC0C0
0FC040
0FC000
0FC000
0FC000
0FC000
0FC000
0FC000
FFFC00
FFFC00
ENDCHAR

STARTCHAR G
ENCODING 71
SWIDTH 833 0
DWIDTH 32 0
BBX 29 28 2 0
BITMAP
001F8100
00FFE300
03E03B00
07C01F00
0F800F00
1F000700
3F000780
3F000380
7E000380
7E000180
7E000180
FE000000
FE000000
FE000000
FE000000
FE00FFF8
FE00FFF8
7E000FC0
7E000FC0
7E000FC0
3E000FC0
3F000FC0
1F000FC0
1F801DC0
0FC019C0
03E071C0
01FFE0C0
003F00C0
ENDCHAR

STARTCHAR H
ENCODING 72
SWIDTH 870 0
DWIDTH 33 0
BBX 28 28 3 0
BITMAP
FFF0FFF0
FFF0FFF0
1F801F80
1F801F80
1F801F80
1F801F80
1F801F80
1F801F80
1F801F80
1F801F80
1F801F80
1F801F80
1FFFFF80
1FFFFF80
1F801F80
1F801F80
1F801F80
1F801F80
1F801F80
1F801F80
1F801F80
1F801F80
1F801F80
1F801F80
1F801F80
1F801F80
FFF0FFF0
FFF0FFF0
ENDCHAR

STARTCHAR I
ENCODING 73
SWIDTH 444 0
DWIDTH 17 0
BBX 14 28 1 0
BITMAP
FFFC
FFFC
0FC0
0FC0
0FC0
0FC0
0FC0
0FC0
0FC0
0FC0
0FC0
0FC0
0FC0
0FC0
0FC0
0FC0
0FC0
0FC0
0FC0
0FC0
0FC0
0FC0
0FC0
0FC0
0FC0
0FC0
FFFC
FFFC
ENDCHAR

STARTCHAR J
ENCODING 74
SWIDTH 648 0
DWIDTH 25 0
BBX 21 28 2 0
BITMAP
00FFF8
00FFF8
000FC0
000FC0
000FC0
000FC0
000FC0
000FC0
000FC0
000FC0
000FC0
000FC0
000FC0
000FC0
000FC0
000FC0
3C0FC0
7E0FC0
FF0FC0
FF0FC0
FF0FC0
FE0FC0
E00FC0
600F80
701F00
383F00
0FFC00
03F000
ENDCHAR

STARTCHAR K
ENCODING 75
SWIDTH 815 0
DWIDTH 31 0
BBX 29 28 1 0
BITMAP
FFFC7FF0
FFFC7FF0
0FC01F80
0FC00E00
0FC01C00
0FC01800
0FC03000
0FC06000
0FC0E000
0FC1C000
0FC3C000
0FC7C000
0FC7E000
0FCFE000
0FDBF000
0FDBF000
0FF1F800
0FE1F800
0FC0FC00
0FC0FE00
0FC07E00
0FC03F00
0FC03F00
0FC01F80
0FC01F80
0FC01FE0
FFFCFFF8
FFFCFFF8
ENDCHAR

STARTCHAR L
ENCODING 76
SWIDTH 722 0
DWIDTH 27 0
BBX 25 28 2 0
BITMAP
FFFC0000
FFFC0000
0FC00000
0FC00000
0FC00000
0FC00000
0FC00000
0FC00000
0FC00000
0FC00000
0FC00000
0FC00000
0FC00000
0FC00000
0FC00000
0FC00000
0FC00000
0FC00180
0FC00180
0FC00180
0FC00380
0FC00380
0FC00780
0FC00700
0FC00F00
0FC03F00
FFFFFF00
FFFFFF00
ENDCHAR

STARTCHAR M
ENCODING 77
SWIDTH 981 0
DWIDTH 37 0
BBX 35 28 1 0
BITMAP
FFE001FFE0
FFF001FFE0
0DF001BE00
0DF0037E00
0DF8037E00
0DF8037E00
0CF8067E00
0CFC067E00
0CFC067E00
0C7C0C7E00
0C7E0C7E00
0C7E0C7E00
0C3E187E00
0C3F187E00
0C3F187E00
0C1F107E00
0C1FB07E00
0C1FB07E00
0C0FA07E00
0C0FE07E00
0C0FE07E00
0C07C07E00
0C07C07E00
0C07C07E00
1E03807E00
3F03807E00
FFC387FFE0
FFC107FFE0
ENDCHAR

STARTCHAR N
ENCODING 78
SWIDTH 833 0
DWIDTH 32 0
BBX 30 28 1 0
BITMAP
7F800FFC
7FC00FFC
0FE003F0
07F001E0
07F800C0
07F800C0
06FC00C0
06FE00C0
067F00C0
063F80C0
061F80C0
061FC0C0
060FE0C0
0607F0C0
0603F0C0
0603F8C0
0601FCC0
0600FEC0
06007FC0
06007FC0
06003FC0
06001FC0
06000FC0
060007C0
0F0007C0
1F8003C0
FFF001C0
FFF000C0
ENDCHAR

STARTCHAR O
ENCODING 79
SWIDTH 833 0
DWIDTH 32 0
BBX 28 28 2 0
BITMAP
003FC000
01FFF000
03E07C00
07C03E00
0F801F00
1F000F80
3F000FC0
3F0007C0
7E0007E0
7E0007E0
7E0007F0
FE0007F0
FE0007F0
FE0007F0
FE0007F0
FE0007F0
FE0007F0
7E0007E0
7E0007E0
7E0007E0
3E000FC0
3F000FC0
1F000F80
0F801F00
07C03E00
03E07C00
00FFF000
003F8000
ENDCHAR

STARTCHAR P
ENCODING 80
SWIDTH 759 0
DWIDTH 29 0
BBX 25 28 2 0
BITMAP
FFFFE000
FFFFF800
0FC07E00
0FC03F00
0FC03F00
0FC01F80
0FC01F80
0FC01F80
0FC01F80
0FC01F80
0FC01F80
0FC03F00
0FC03E00
0FC0FC00
0FFFF800
0FFFC000
0FC00000
0FC00000
0FC00000
0FC00000
0FC00000
0FC00000
0FC00000
0FC00000
0FC00000
0FC00000
FFFE0000
FFFE0000
ENDCHAR

STARTCHAR Q
ENCODING 81
SWIDTH 833 0
DWIDTH 32 0
BBX 29 35 2 -7
BITMAP
003FC000
00FFF000
03E07C00
07C03E00
0F801F00
1F000F80
3F000FC0
3F0007C0
7E0007E0
7E0007E0
7E0007F0
FE0007F0
FE0007F0
FE0007F0
FE0007F0
FE0007F0
FE0007F0
7E0F87E0
7E3FC7E0
7E70E7E0
3F607FC0
3FC07FC0
1FC07F80
0FC07F00
07E07E00
03E07C00
00FFFC00
001FFE00
00003E18
00003F10
00003F30
00003FF0
00001FF0
00001FE0
00000780
ENDCHAR

STARTCHAR R
ENCODING 82
SWIDTH 815 0
DWIDTH 31 0
BBX 27 28 2 0
BITMAP
FFFFC000
FFFFF800
0FC0FC00
0FC07E00
0FC03F00
0FC03F00
0FC03F00
0FC03F00
0FC03F00
0FC03F00
0FC07E00
0FC07C00
0FC1F800
0FFFE000
0FFF0000
0FC3E000
0FC1F000
0FC1F000
0FC0F800
0FC0F800
0FC0FC00
0FC0FC00
0FC07C60
0FC07E60
0FC07E60
0FC07FC0
FFFC3FC0
FFFC1F00
ENDCHAR

STARTCHAR S
ENCODING 83
SWIDTH 667 0
DWIDTH 25 0
BBX 22 28 2 0
BITMAP
03F000
0FFE30
1C07F0
3801F0
7000F0
700070
F00070
F00030
F80030
FC0010
7F8000
7FFC00
3FFF80
3FFFE0
0FFFF0
01FFF8
001FF8
0001FC
C0007C
C0003C
E0003C
E0003C
F00038
F80078
FC0070
EE01E0
C3FF80
807C00
ENDCHAR

STARTCHAR T
ENCODING 84
SWIDTH 722 0
DWIDTH 27 0
BBX 26 28 1 0
BITMAP
7FFFFF80
7FFFFF80
7C3F0F80
783F0780
703F0380
703F0380
603F0180
603F0180
603F0180
C03F00C0
C03F00C0
003F0000
003F0000
003F0000
003F0000
003F0000
003F0000
003F0000
003F0000
003F0000
003F0000
003F0000
003F0000
003F0000
003F0000
003F0000
03FFF000
03FFF000
ENDCHAR

STARTCHAR U
ENCODING 85
SWIDTH 833 0
DWIDTH 32 0
BBX 30 28 1 0
BITMAP
FFFC0FFC
FFFC0FFC
0FC003F0
0FC001E0
0FC000C0
0FC000C0
0FC000C0
0FC000C0
0FC000C0
0FC000C0
0FC000C0
0FC000C0
0FC000C0
0FC000C0
0FC000C0
0FC000C0
0FC000C0
0FC000C0
0FC000C0
0FC000C0
0FC001C0
0FE001C0
07E00380
07F00380
03FC0F00
01FFFE00
00FFFC00
001FE000
ENDCHAR

STARTCHAR V
ENCODING 86
SWIDTH 759 0
DWIDTH 29 0
BBX 29 28 0 0
BITMAP
FFF81FF8
FFF81FF8
3F8003E0
1F8003C0
0FC00180
0FC00380
0FC00300
07E00300
07E00700
03F00600
03F00E00
01F00C00
01F80C00
01F81C00
00FC1800
00FC3800
007E3000
007E3000
007E6000
003F6000
003F6000
001FC000
001FC000
000F8000
000F8000
000F8000
00070000
00070000
ENDCHAR

STARTCHAR W
ENCODING 87
SWIDTH 981 0
DWIDTH 37 0
BBX 39 28 -1 0
BITMAP
FFE3FFE3FE
FFE3FFE3FE
3F007E0078
3F003E0070
1F803F0070
1F803F0060
1F803F0060
0FC03F8060
0FC07F80C0
0FC06F80C0
07E06FC0C0
07E0EFC1C0
07E0C7C180
03F0C7E180
03F187E380
03F183E300
01F983F300
01FB03F700
01FB01F600
00FD01FA00
00FE01FE00
00FE00FC00
007E00FC00
007C00FC00
003C007800
003C007800
0038007800
0018003000
ENDCHAR

STARTCHAR X
ENCODING 88
SWIDTH 722 0
DWIDTH 27 0
BBX 29 28 -1 0
BITMAP
FFF87FF0
FFF87FF0
3FC00F80
1FC00F00
0FE00E00
07F01C00
07F01C00
03F83800
01FC7000
00FCE000
00FEC000
007F8000
003F8000
001F8000
000FC000
001FE000
003FF000
0033F000
0063F800
00E1FC00
01C0FE00
03807E00
07007F00
07003F80
0F001FC0
3F001FC0
FFE0FFF8
FFE0FFF8
ENDCHAR

STARTCHAR Y
ENCODING 89
SWIDTH 722 0
DWIDTH 27 0
BBX 27 28 0 0
BITMAP
FFF87FE0
FFF87FE0
3FC00F80
1FC00E00
0FC00E00
07E00C00
07E01C00
03F01800
03F83800
01F83000
01FC7000
00FC6000
007EE000
007EC000
003FC000
003F8000
001F8000
001F8000
001F8000
001F8000
001F8000
001F8000
001F8000
001F8000
001F8000
001F8000
01FFFC00
01FFFC00
ENDCHAR

STARTCHAR Z
ENCODING 90
SWIDTH 667 0
DWIDTH 25 0
BBX 22 28 2 0
BITMAP
7FFFF8
7FFFF8
7C03F8
7803F0
7007F0
6007E0
600FE0
601FC0
401F80
403F80
007F00
007E00
00FE00
00FC00
01F800
03F800
03F000
07F00C
0FE00C
0FC00C
1FC01C
3F801C
3F001C
7F003C
7E0078
FC00F8
FFFFF8
FFFFF8
ENDCHAR

STARTCHAR bracketleft
ENCODING 91
SWIDTH 389 0
DWIDTH 15 0
BBX 9 35 5 -7
BITMAP
FF80
FF80
F800
F800
F800
F800
F800
F800
F800
F800
F800
F800
F800
F800
F800
F800
F800
F800
F800
F800
F800
F800
F800
F800
F800
F800
F800
F800
F800
F800
F800
F800
F800
FF80
FF80
ENDCHAR

STARTCHAR backslash
ENCODING 92
SWIDTH 606 0
DWIDTH 23 0
BBX 21 28 1 0
BITMAP
E00000
700000
780000
380000
1C0000
1E0000
0E0000
070000
078000
038000
03C000
01E000
00E000
00F000
007800
003800
003C00
001E00
000E00
000F00
000780
000380
0003C0
0001E0
0000E0
0000F0
000078
000038
ENDCHAR

STARTCHAR bracketright
ENCODING 93
SWIDTH 389 0
DWIDTH 15 0
BBX 9 35 1 -7
BITMAP
FF80
FF80
0F80
0F80
0F80
0F80
0F80
0F80
0F80
0F80
0F80
0F80
0F80
0F80
0F80
0F80
0F80
0F80
0F80
0F80
0F80
0F80
0F80
0F80
0F80
0F80
0F80
0F80
0F80
0F80
0F80
0F80
0F80
FF80
FF80
ENDCHAR

STARTCHAR asciicircum
ENCODING 94
SWIDTH 606 0
DWIDTH 23 0
BBX 17 13 3 15
BITMAP
008000
01C000
03E000
03E000
07F000
07F000
0F7800
0E7800
1E3C00
3C1E00
3C1E00
780F00
F80F80
ENDCHAR

STARTCHAR underscore
ENCODING 95
SWIDTH 500 0
DWIDTH 19 0
BBX 19 2 0 -5
BITMAP
FFFFE0
FFFFE0
ENDCHAR

STARTCHAR quoteleft
ENCODING 96
SWIDTH 241 0
DWIDTH 9 0
BBX 7 13 1 16
BITMAP
02
0E
18
30
60
40
E0
FC
FE
FE
FE
7E
3C
ENDCHAR

STARTCHAR a
ENCODING 97
SWIDTH 611 0
DWIDTH 23 0
BBX 21 18 2 0
BITMAP
03F000
1FFE00
381F00
7C0F80
7C0F80
7C0F80
3C0F80
003F80
07FF80
1F0F80
7C0F80
FC0F80
F80F80
F81F80
FC3F80
FFEF88
7FC7F8
1F03E0
ENDCHAR

STARTCHAR b
ENCODING 98
SWIDTH 648 0
DWIDTH 25 0
BBX 22 28 1 0
BITMAP
3F0000
FF0000
3F0000
1F0000
1F0000
1F0000
1F0000
1F0000
1F0000
1F0000
1F0F80
1F3FE0
1F7FF0
1FC3F8
1F81F8
1F00F8
1F00FC
1F00FC
1F00FC
1F00FC
1F00FC
1F00FC
1F00F8
1F81F8
1F81F0
1DC3E0
38FFC0
103F00
ENDCHAR

STARTCHAR c
ENCODING 99
SWIDTH 556 0
DWIDTH 21 0
BBX 19 18 1 0
BITMAP
00FC00
07FF00
1F03C0
3E07C0
3E07C0
7C07C0
7C07C0
FC0100
FC0000
FC0000
FC0000
FC0040
7C0060
7E00C0
3F0180
3F8380
0FFE00
03F800
ENDCHAR

STARTCHAR d
ENCODING 100
SWIDTH 667 0
DWIDTH 25 0
BBX 22 28 2 0
BITMAP
0007E0
003FE0
0007E0
0003E0
0003E0
0003E0
0003E0
0003E0
0003E0
0003E0
07E3E0
1FFBE0
3F1DE0
3E07E0
7C07E0
7C03E0
FC03E0
FC03E0
FC03E0
FC03E0
FC03E0
FC03E0
7C07E0
7E07E0
3F0DE0
3FFBF0
1FF3FC
03C1C0
ENDCHAR

STARTCHAR e
ENCODING 101
SWIDTH 574 0
DWIDTH 22 0
BBX 18 18 2 0
BITMAP
01F000
0FFC00
1E0E00
3E0F00
7C0780
7C0780
FC0780
FC07C0
FFFFC0
FFFFC0
FC0000
FC0000
7C0040
7C00C0
3E0180
1F0700
0FFE00
01F800
ENDCHAR

STARTCHAR f
ENCODING 102
SWIDTH 389 0
DWIDTH 15 0
BBX 16 28 2 0
BITMAP
00F8
03FE
078F
0F9F
0F1F
0F1F
1F0E
1F00
1F00
1F00
FFF0
FFF0
1F00
1F00
1F00
1F00
1F00
1F00
1F00
1F00
1F00
1F00
1F00
1F00
1F00
1F00
FFF0
FFF0
ENDCHAR

STARTCHAR g
ENCODING 103
SWIDTH 611 0
DWIDTH 23 0
BBX 21 26 2 -7
BITMAP
0000F0
03F9F8
0FFF78
3E1F30
7E1F00
7C0F80
7C0F80
7C0F80
7C0F80
7E1F80
3E1F00
0FFE00
1FF000
300000
600000
700000
7FFF80
7FFFC0
3FFFE0
1FFFE0
7801E0
E000E0
E000C0
F003C0
3FFF00
07F000
ENDCHAR

STARTCHAR h
ENCODING 104
SWIDTH 685 0
DWIDTH 26 0
BBX 23 28 2 0
BITMAP
1F0000
FF0000
3F0000
1F0000
1F0000
1F0000
1F0000
1F0000
1F0000
1F0000
1F0F80
1F3FC0
1F7FE0
1FC3F0
1F81F0
1F01F0
1F01F0
1F01F0
1F01F0
1F01F0
1F01F0
1F01F0
1F01F0
1F01F0
1F01F0
1F01F0
FFEFFE
FFEFFE
ENDCHAR

STARTCHAR i
ENCODING 105
SWIDTH 370 0
DWIDTH 14 0
BBX 11 28 2 0
BITMAP
1E00
3F00
3F00
3F00
3F00
1E00
0000
0000
0000
0000
3F00
FF00
3F00
1F00
1F00
1F00
1F00
1F00
1F00
1F00
1F00
1F00
1F00
1F00
1F00
1F00
FFE0
FFE0
ENDCHAR

STARTCHAR j
ENCODING 106
SWIDTH 352 0
DWIDTH 13 0
BBX 11 35 -1 -7
BITMAP
03C0
07E0
07E0
07E0
07E0
03C0
0000
0000
0000
0000
03E0
1FE0
07E0
03E0
03E0
03E0
03E0
03E0
03E0
03E0
03E0
03E0
03E0
03E0
03E0
03E0
03E0
03E0
03E0
03C0
63C0
F380
F700
FE00
7800
ENDCHAR

STARTCHAR k
ENCODING 107
SWIDTH 667 0
DWIDTH 25 0
BBX 23 28 1 0
BITMAP
FF0000
FF0000
1F0000
1F0000
1F0000
1F0000
1F0000
1F0000
1F0000
1F0000
1F0FFC
1F0FFC
1F03E0
1F0380
1F0700
1F0E00
1F1C00
1F3E00
1F7F00
1FDF00
1F9F80
1F0FC0
1F07E0
1F07E0
1F03F0
1F01F8
FFEFFE
FFEFFE
ENDCHAR

STARTCHAR l
ENCODING 108
SWIDTH 352 0
DWIDTH 13 0
BBX 11 28 2 0
BITMAP
1F00
FF00
3F00
1F00
1F00
1F00
1F00
1F00
1F00
1F00
1F00
1F00
1F00
1F00
1F00
1F00
1F00
1F00
1F00
1F00
1F00
1F00
1F00
1F00
1F00
1F00
FFE0
FFE0
ENDCHAR

STARTCHAR m
ENCODING 109
SWIDTH 963 0
DWIDTH 37 0
BBX 36 18 1 0
BITMAP
0607807C00
FF1FE1FE00
3F7FF3FF00
1F41F61F80
1F81FC0F80
1F80F80F80
1F00F80F80
1F00F80F80
1F00F80F80
1F00F80F80
1F00F80F80
1F00F80F80
1F00F80F80
1F00F80F80
1F00F80F80
1F00F80F80
FFE7FF7FF0
FFE7FF7FF0
ENDCHAR

STARTCHAR n
ENCODING 110
SWIDTH 685 0
DWIDTH 26 0
BBX 23 18 2 0
BITMAP
060F80
FF3FC0
3F7FE0
1FC3F0
1F81F0
1F01F0
1F01F0
1F01F0
1F01F0
1F01F0
1F01F0
1F01F0
1F01F0
1F01F0
1F01F0
1F01F0
FFEFFE
FFEFFE
ENDCHAR

STARTCHAR o
ENCODING 111
SWIDTH 611 0
DWIDTH 23 0
BBX 20 18 2 0
BITMAP
01F800
07FF00
1F0F80
3E07C0
7C03E0
7C03E0
FC03F0
FC03F0
FC03F0
FC03F0
FC03F0
7C03F0
7C03E0
7C03E0
3E07C0
1F0F80
07FE00
01F000
ENDCHAR

STARTCHAR p
ENCODING 112
SWIDTH 667 0
DWIDTH 25 0
BBX 21 25 2 -7
BITMAP
041F00
FE7FC0
7EFFE0
3F87F0
3F03F0
3F01F0
3E01F8
3E01F8
3E01F8
3E01F8
3E01F8
3E01F8
3F01F0
3F03F0
3F83F0
3ECFE0
3EFFC0
3E3F80
3E0000
3E0000
3E0000
3E0000
3E0000
FFC000
FFC000
ENDCHAR

STARTCHAR q
ENCODING 113
SWIDTH 648 0
DWIDTH 25 0
BBX 22 25 2 -7
BITMAP
03F030
0FFC60
1F0EE0
3E07E0
7E03E0
7C03E0
7C03E0
FC03E0
FC03E0
FC03E0
FC03E0
FC03E0
7E07E0
7E07E0
3F0DE0
3FFBE0
1FF3E0
07E3E0
0003E0
0003E0
0003E0
0003E0
0003E0
001FFC
001FFC
ENDCHAR

STARTCHAR r
ENCODING 114
SWIDTH 519 0
DWIDTH 20 0
BBX 17 18 2 0
BITMAP
061E00
FE3F00
3E6780
1ECF80
1E8F00
1F8700
1F8000
1F0000
1F0000
1F0000
1F0000
1F0000
1F0000
1F0000
1F0000
1F0000
FFF000
FFF000
ENDCHAR

STARTCHAR s
ENCODING 115
SWIDTH 500 0
DWIDTH 19 0
BBX 15 18 2 0
BITMAP
0F8C
3FEC
703C
E01C
E00C
F00C
FF00
FFF0
7FF8
3FFC
0FFE
80FE
C01E
E00E
F00E
F81C
EFF8
C3E0
ENDCHAR

STARTCHAR t
ENCODING 116
SWIDTH 426 0
DWIDTH 16 0
BBX 14 25 1 0
BITMAP
0300
0300
0300
0700
0700
0F00
1F00
FFFC
FFFC
1F00
1F00
1F00
1F00
1F00
1F00
1F00
1F00
1F04
1F04
1F04
1F0C
1F0C
0FF8
07F0
01C0
ENDCHAR

STARTCHAR u
ENCODING 117
SWIDTH 685 0
DWIDTH 26 0
BBX 23 18 1 0
BITMAP
1F01F0
FF0FF0
3F03F0
1F01F0
1F01F0
1F01F0
1F01F0
1F01F0
1F01F0
1F01F0
1F01F0
1F01F0
1F03F0
1F03F0
0F86F0
0FFDF8
07F8FE
03E0FE
ENDCHAR

STARTCHAR v
ENCODING 118
SWIDTH 611 0
DWIDTH 23 0
BBX 22 18 1 0
BITMAP
FFC3FC
FFC3FC
3F0070
1F0060
1F0060
0F80C0
0FC0C0
07C180
07E180
03E300
03F300
01F600
00FE00
00FC00
007C00
007800
003800
003000
ENDCHAR

STARTCHAR w
ENCODING 119
SWIDTH 889 0
DWIDTH 34 0
BBX 30 18 2 0
BITMAP
FF9FF1FC
FF9FF1FC
7E07C070
3E07E060
3E07E060
1F07E0C0
1F0DF0C0
0F8DF0C0
0F9CF980
0FD8F980
07D8FF00
07F07F00
03F07F00
03F03E00
01E03E00
01E01C00
00C01C00
00C00C00
ENDCHAR

STARTCHAR x
ENCODING 120
SWIDTH 611 0
DWIDTH 23 0
BBX 21 18 1 0
BITMAP
FFEFF0
FFEFF0
1F81C0
1F8380
0FC300
07E600
03FC00
01F800
01F800
00FC00
00FE00
01BF00
033F00
061F80
0C07C0
1E0FE0
FFBFF8
FFBFF8
ENDCHAR

STARTCHAR y
ENCODING 121
SWIDTH 611 0
DWIDTH 23 0
BBX 22 25 1 -7
BITMAP
FFE3FC
FFE3FC
3F0070
1F0060
1F8060
0F80C0
0FC0C0
07C180
03E180
03F300
01F300
01FE00
00FE00
00FC00
007C00
007800
003800
003000
003000
706000
F8C000
F8C000
FB8000
7F0000
1C0000
ENDCHAR

STARTCHAR z
ENCODING 122
SWIDTH 537 0
DWIDTH 20 0
BBX 17 18 2 0
BITMAP
7FFF00
7FFF00
703F00
707E00
60FC00
60FC00
61F800
03F000
03E000
07E000
0FC000
1F8180
1F8180
3F0300
7E0300
FC0700
FFFF00
FFFF00
ENDCHAR

STARTCHAR braceleft
ENCODING 123
SWIDTH 389 0
DWIDTH 15 0
BBX 10 35 3 -7
BITMAP
03C0
0700
0E00
1E00
3E00
3E00
3E00
3E00
3F00
1F00
1F00
1F00
1F00
1E00
1E00
3800
7000
8000
7000
3C00
1E00
1E00
1F00
1F00
1F00
3F00
3F00
3E00
3E00
3E00
3E00
1E00
0E00
0700
01C0
ENDCHAR

STARTCHAR bar
ENCODING 124
SWIDTH 606 0
DWIDTH 23 0
BBX 4 35 10 -7
BITMAP
F0
F0
F0
F0
F0
F0
F0
F0
F0
F0
F0
F0
F0
F0
F0
F0
F0
F0
F0
F0
F0
F0
F0
F0
F0
F0
F0
F0
F0
F0
F0
F0
F0
F0
F0
ENDCHAR

STARTCHAR braceright
ENCODING 125
SWIDTH 389 0
DWIDTH 15 0
BBX 10 35 2 -7
BITMAP
E000
3800
1C00
1E00
1F00
1F00
1F00
1F00
3F00
3F00
3E00
3E00
3E00
1E00
0E00
0700
0380
0040
0380
0F00
1E00
1E00
3E00
3E00
3E00
3F00
3F00
1F00
1F00
1F00
1E00
1E00
1C00
7800
E000
ENDCHAR

STARTCHAR asciitilde
ENCODING 126
SWIDTH 606 0
DWIDTH 23 0
BBX 21 6 1 10
BITMAP
1F8008
3FE018
7FFC30
61FFF0
C03FE0
C007C0
ENDCHAR

STARTCHAR space
ENCODING 160
SWIDTH 287 0
DWIDTH 13 0
BBX 0 0 0 0
BITMAP
ENDCHAR

STARTCHAR Aogonek
ENCODING 161
SWIDTH 759 0
DWIDTH 29 0
BBX 30 37 0 -9
BITMAP
00030000
00078000
00078000
000F8000
000FC000
001FC000
001FE000
001BE000
0033E000
0033F000
0063F000
0061F800
00E1F800
00C0FC00
00C0FC00
01807C00
01807E00
03FFFE00
03FFFF00
07003F00
06001F80
06001F80
0C001F80
0C000FC0
1C000FC0
3E000FE0
FFC07FFC
FFC07EFC
00000180
00000300
00000700
00000700
00000780
000007C0
000003FC
000001F8
00000020
ENDCHAR

STARTCHAR breve
ENCODING 162
SWIDTH 333 0
DWIDTH 13 0
BBX 11 6 1 21
BITMAP
8060
C0C0
FFC0
7F80
3F80
1E00
ENDCHAR

STARTCHAR Lslash
ENCODING 163
SWIDTH 722 0
DWIDTH 27 0
BBX 25 28 2 0
BITMAP
FFFC0000
FFFC0000
0FC00000
0FC00000
0FC00000
0FC00000
0FC08000
0FC18000
0FC70000
0FCE0000
0FDC0000
0FF00000
0FE00000
0FC00000
0FC00000
0FC00000
0FC00000
1FC00180
3FC00180
6FC00180
CFC00380
8FC00380
0FC00780
0FC00700
0FC00F00
0FC03F00
FFFFFF00
FFFFFF00
ENDCHAR

STARTCHAR currency
ENCODING 164
SWIDTH 606 0
DWIDTH 23 0
BBX 19 19 2 3
BITMAP
200080
73F9C0
FFFFE0
7FFFC0
3E1F80
3C0780
7803C0
7801C0
7001C0
7001C0
7001C0
7801C0
3803C0
3C0780
3F1F80
7FFFC0
FFFFE0
73F9C0
200080
ENDCHAR

STARTCHAR Lcaron
ENCODING 165
SWIDTH 722 0
DWIDTH 27 0
BBX 25 28 1 0
BITMAP
FFFC3C00
FFFC7E00
0FC07F00
0FC07F00
0FC07F00
0FC03F00
0FC00300
0FC00600
0FC00600
0FC00C00
0FC01800
0FC07000
0FC00000
0FC00000
0FC00000
0FC00000
0FC00000
0FC00180
0FC00180
0FC00180
0FC00180
0FC00380
0FC00380
0FC00780
0FC00F80
0FC01F80
FFFFFF80
FFFFFF80
ENDCHAR

STARTCHAR Sacute
ENCODING 166
SWIDTH 667 0
DWIDTH 25 0
BBX 22 37 2 0
BITMAP
001E00
003E00
003E00
007C00
00F000
01C000
010000
000000
000000
01F800
0FFE30
1C07F0
3801F0
7000F0
700070
F00070
F00030
F80030
FC0010
7F8000
7FFC00
3FFF80
1FFFE0
0FFFF0
01FFF8
001FF8
0003FC
C000FC
C0007C
E0003C
E0003C
F00038
F80078
FC0070
EF01E0
C3FF80
807E00
ENDCHAR

STARTCHAR section
ENCODING 167
SWIDTH 500 0
DWIDTH 19 0
BBX 16 35 2 -7
BITMAP
01F0
0FFC
1E1E
1C3E
3C3E
3C3E
3E1C
3F00
3F00
1F80
0FE0
1FF0
33F8
61FC
E0FE
E07E
F03E
F81F
FC0F
FE06
7F06
3F8C
1FEC
0FF0
07F0
03F8
01F8
00FC
387C
7C3C
7C3C
7C38
3838
1FF0
0780
ENDCHAR

STARTCHAR dieresis
ENCODING 168
SWIDTH 333 0
DWIDTH 13 0
BBX 13 5 0 22
BITMAP
7070
F8F8
F8F8
F8F8
7070
ENDCHAR

STARTCHAR Scaron
ENCODING 169
SWIDTH 667 0
DWIDTH 25 0
BBX 22 37 2 0
BITMAP
040180
070300
038700
03EE00
01FE00
01FC00
00FC00
000000
000000
01F800
0FFE30
1C07F0
3801F0
7000F0
700070
F00070
F00030
F80030
FC0010
7F8000
7FFC00
3FFF80
1FFFE0
0FFFF0
01FFF8
001FF8
0003FC
C000FC
C0007C
E0003C
E0003C
F00038
F80078
FC0070
EF01E0
C3FF80
807E00
ENDCHAR

STARTCHAR Scommaaccent
ENCODING 170
SWIDTH 667 0
DWIDTH 25 0
BBX 22 35 2 -7
BITMAP
03F000
0FFE30
1C07B0
3801F0
7000F0
700070
F00070
F00030
F80030
FC0010
FF8000
7FFC00
7FFF80
3FFFE0
0FFFF0
01FFF8
001FF8
0001FC
C0007C
C0007C
E0003C
E0003C
F00038
F00078
FC00F0
EE01E0
C3FF80
80FC00
000000
007000
00F800
00F800
003800
001000
006000
ENDCHAR

STARTCHAR Tcaron
ENCODING 171
SWIDTH 722 0
DWIDTH 27 0
BBX 26 38 1 0
BITMAP
01002000
00C0C000
00E1C000
00738000
007F8000
003F0000
003F0000
00000000
00000000
00000000
7FFFFF80
7FFFFF80
7C3F0F80
783F0780
703F0380
703F0380
603F0180
603F0180
603F0180
C03F00C0
C03F00C0
003F0000
003F0000
003F0000
003F0000
003F0000
003F0000
003F0000
003F0000
003F0000
003F0000
003F0000
003F0000
003F0000
003F0000
003F0000
03FFF000
03FFF000
ENDCHAR

STARTCHAR Zacute
ENCODING 172
SWIDTH 667 0
DWIDTH 25 0
BBX 22 38 2 0
BITMAP
001C00
003E00
003E00
007C00
00F800
00C000
010000
000000
000000
000000
7FFFF8
7FFFF8
7C03F8
7803F0
7007F0
6007E0
600FE0
601FC0
401F80
403F80
007F00
007E00
00FE00
00FC00
01F800
03F800
03F000
07F00C
0FE00C
0FC00C
1FC01C
3F801C
3F001C
7F003C
7E0078
FC00F8
FFFFF8
FFFFF8
ENDCHAR

STARTCHAR hyphen
ENCODING 173
SWIDTH 333 0
DWIDTH 13 0
BBX 11 3 1 7
BITMAP
FFE0
FFE0
FFE0
ENDCHAR

STARTCHAR Zcaron
ENCODING 174
SWIDTH 667 0
DWIDTH 25 0
BBX 22 38 2 0
BITMAP
040180
060300
038700
03DE00
01FE00
01FC00
00FC00
000000
000000
000000
7FFFF8
7FFFF8
7C03F8
7803F0
7007F0
6007E0
600FE0
601FC0
401F80
403F80
007F00
007E00
00FE00
00FC00
01F800
03F800
03F000
07F00C
0FE00C
0FC00C
1FC01C
3F801C
3F001C
7F003C
7E0078
FC00F8
FFFFF8
FFFFF8
ENDCHAR

STARTCHAR Zdotaccent
ENCODING 175
SWIDTH 667 0
DWIDTH 25 0
BBX 23 37 1 0
BITMAP
003800
007C00
007C00
007C00
003800
000000
000000
000000
000000
3FFFFC
3FFFFC
3E01FC
3C01F8
3803F8
3007F0
3007E0
200FE0
601FC0
601F80
003F80
003F00
007E00
00FE00
00FC00
01FC00
03F800
03F006
07F006
07E00E
0FC00C
1FC00C
1F801C
3F801C
7F003C
7E007C
FFFFFC
FFFFFC
ENDCHAR

STARTCHAR degree
ENCODING 176
SWIDTH 400 0
DWIDTH 15 0
BBX 13 13 1 14
BITMAP
0F80
1FE0
3FF0
7070
E038
E038
E038
E038
F038
78F0
3FF0
1FC0
0F80
ENDCHAR

STARTCHAR aogonek
ENCODING 177
SWIDTH 611 0
DWIDTH 23 0
BBX 21 26 2 -8
BITMAP
03F000
1FFE00
381F00
7C0F80
7C0F80
7C0F80
3C0F80
000F80
01FF80
0F0F80
3C0F80
7C0F80
F80F80
F81F80
FC3F80
FFE788
7FC1F8
0F03E0
000700
000E00
000E00
000E00
000F00
0007C0
0007F8
0001E0
ENDCHAR

STARTCHAR ogonek
ENCODING 178
SWIDTH 333 0
DWIDTH 13 0
BBX 9 9 2 -9
BITMAP
3800
6000
E000
E000
F000
F800
7E00
3F80
0E00
ENDCHAR

STARTCHAR lslash
ENCODING 179
SWIDTH 352 0
DWIDTH 13 0
BBX 11 28 1 0
BITMAP
1F00
FF00
3F00
1F00
1F00
1F00
1F00
1F00
1F00
1F20
1F60
1FC0
1F00
1F00
1F00
3F00
7F00
DF00
9F00
1F00
1F00
1F00
1F00
1F00
1F00
1F00
FFE0
FFE0
ENDCHAR

STARTCHAR acute
ENCODING 180
SWIDTH 333 0
DWIDTH 13 0
BBX 8 6 3 21
BITMAP
1E
1F
3E
7C
F0
C0
ENDCHAR

STARTCHAR lcaron
ENCODING 181
SWIDTH 443 0
DWIDTH 17 0
BBX 15 28 2 0
BITMAP
FF18
FF7C
3F7E
1F3E
1F3E
1F06
1F0C
1F18
1F30
1F20
1F00
1F00
1F00
1F00
1F00
1F00
1F00
1F00
1F00
1F00
1F00
1F00
1F00
1F00
1F00
1F00
FFC0
FFC0
ENDCHAR

STARTCHAR sacute
ENCODING 182
SWIDTH 500 0
DWIDTH 19 0
BBX 15 28 2 0
BITMAP
00E0
01F0
03F0
07E0
0780
0E00
0800
0000
0000
0000
0F8C
3FEC
703C
601C
E00C
F00C
FF00
FFF0
7FF8
3FFC
0FFE
80FE
C01E
E00E
F00E
F81C
EFF8
C3E0
ENDCHAR

STARTCHAR caron
ENCODING 183
SWIDTH 333 0
DWIDTH 13 0
BBX 12 7 0 21
BITMAP
0010
C030
6060
38E0
3DC0
3FC0
1F80
ENDCHAR

STARTCHAR commaaccent
ENCODING 184
SWIDTH 333 0
DWIDTH 13 0
BBX 5 6 4 -8
BITMAP
70
F8
F8
18
30
40
ENDCHAR

STARTCHAR scaron
ENCODING 185
SWIDTH 500 0
DWIDTH 19 0
BBX 15 28 2 0
BITMAP
6008
3038
3870
1EF0
1FE0
0FE0
0FC0
0000
0000
0000
0F8C
3FEC
703C
601C
E00C
F00C
FF00
FFF0
7FF8
3FFC
0FFE
80FE
C01E
E00E
F00E
F81C
EFF8
C3E0
ENDCHAR

STARTCHAR scommaaccent
ENCODING 186
SWIDTH 500 0
DWIDTH 19 0
BBX 15 25 2 -7
BITMAP
0F8C
3FEC
703C
601C
E00C
F00C
FF00
FFF0
7FF8
3FFC
0FFE
807E
C01E
E00E
F00E
F81C
EFF8
C3E0
0000
0300
07C0
07C0
01C0
0080
0300
ENDCHAR

STARTCHAR tcaron
ENCODING 187
SWIDTH 549 0
DWIDTH 21 0
BBX 16 28 2 0
BITMAP
001C
003E
003F
001F
030F
0302
0306
0708
0F10
1F00
FFF8
FFF8
1F00
1F00
1F00
1F00
1F00
1F00
1F00
1F00
1F0C
1F0C
1F0C
1F0C
1F18
0FF8
07F0
01C0
ENDCHAR

STARTCHAR zacute
ENCODING 188
SWIDTH 537 0
DWIDTH 20 0
BBX 17 28 2 0
BITMAP
007000
00F800
01F800
01F000
03C000
070000
040000
000000
000000
000000
7FFF00
7FFF00
703F00
707E00
60FC00
60FC00
61F800
03F000
03E000
07E000
0FC000
1F8180
1F8180
3F0300
7E0300
FC0700
FFFF00
FFFF00
ENDCHAR

STARTCHAR hungarumlaut
ENCODING 189
SWIDTH 333 0
DWIDTH 13 0
BBX 16 6 1 21
BITMAP
0F0E
1F9F
1F3E
3E7C
7870
E0C0
ENDCHAR

STARTCHAR zcaron
ENCODING 190
SWIDTH 537 0
DWIDTH 20 0
BBX 17 28 2 0
BITMAP
200400
180C00
1C3800
0F7800
0FF000
07F000
07E000
000000
000000
000000
7FFF00
7FFF00
703F00
707E00
60FC00
60FC00
61F800
03F000
03E000
07E000
0FC000
1F8180
1F8180
3F0300
7E0300
FC0700
FFFF00
FFFF00
ENDCHAR

STARTCHAR zdotaccent
ENCODING 191
SWIDTH 537 0
DWIDTH 20 0
BBX 17 27 2 0
BITMAP
01C000
03E000
03E000
03E000
01C000
000000
000000
000000
000000
7FFF00
7FFF00
783F00
707E00
607E00
60FC00
61F800
03F000
03F000
07E000
0FC000
0F8180
1F8180
3F0380
7E0380
7C0780
FFFF80
FFFF00
ENDCHAR

STARTCHAR Racute
ENCODING 192
SWIDTH 815 0
DWIDTH 31 0
BBX 27 38 2 0
BITMAP
00038000
0007C000
0007C000
000F8000
001F0000
00180000
00200000
00000000
00000000
00000000
FFFFC000
FFFFF800
0FC0FC00
0FC07E00
0FC03F00
0FC03F00
0FC03F00
0FC03F00
0FC03F00
0FC03F00
0FC07E00
0FC07C00
0FC1F800
0FFFE000
0FFF0000
0FC3E000
0FC1F000
0FC1F000
0FC0F800
0FC0F800
0FC0FC00
0FC0FC00
0FC07C60
0FC07E60
0FC07E60
0FC07FC0
FFFC3FC0
FFFC1F00
ENDCHAR

STARTCHAR Aacute
ENCODING 193
SWIDTH 759 0
DWIDTH 29 0
BBX 29 38 0 0
BITMAP
00018000
0003E000
0007E000
0007C000
000F8000
001C0000
00100000
00000000
00000000
00000000
00070000
00070000
000F8000
000F8000
001F8000
001FC000
001FC000
0037E000
0037E000
0063F000
0063F000
00C3F000
00C1F800
00C1F800
0180FC00
0180FC00
03007E00
03FFFE00
03FFFE00
06003F00
06003F00
0C001F80
0C001F80
1C000F80
1C000FC0
3E000FE0
FFC0FFF8
FFC0FFF8
ENDCHAR

STARTCHAR Acircumflex
ENCODING 194
SWIDTH 759 0
DWIDTH 29 0
BBX 29 38 0 0
BITMAP
001F8000
001FC000
003FC000
003DE000
0070E000
00603000
00C01000
00000000
00000000
00000000
00070000
00070000
000F8000
000F8000
001F8000
001FC000
001FC000
0037E000
0037E000
0063F000
0063F000
00C3F000
00C1F800
00C1F800
0180FC00
0180FC00
03007E00
03FFFE00
03FFFE00
06003F00
06003F00
0C001F80
0C001F80
1C000F80
1C000FC0
3E000FE0
FFC0FFF8
FFC0FFF8
ENDCHAR

STARTCHAR Abreve
ENCODING 195
SWIDTH 759 0
DWIDTH 29 0
BBX 29 37 0 0
BITMAP
00403000
00607000
007FE000
003FE000
001FC000
00070000
00000000
00000000
00000000
00070000
00070000
000F8000
000F8000
001F8000
001FC000
001FC000
0037E000
0037E000
0063F000
0063F000
00C3F000
00C1F800
00C1F800
0180FC00
0180FC00
03007C00
03FFFE00
03FFFE00
06003F00
06003F00
0C001F80
0C001F80
1C000F80
1C000FC0
3E000FE0
FFC0FFF8
FFC0FFF8
ENDCHAR

STARTCHAR Adieresis
ENCODING 196
SWIDTH 759 0
DWIDTH 29 0
BBX 29 37 0 0
BITMAP
00707000
00F8F800
00F8F800
00F8F800
00707000
00000000
00000000
00000000
00000000
00070000
00070000
000F8000
000F8000
000FC000
001FC000
001FE000
0037E000
0037E000
0033F000
0063F000
0061F800
00C1F800
00C0F800
0180FC00
0180FC00
01007E00
03FFFE00
03FFFE00
06003F00
06003F00
0E001F80
0C001F80
0C000FC0
1C000FC0
3E000FE0
FFC0FFF8
FFC0FFF8
ENDCHAR

STARTCHAR Lacute
ENCODING 197
SWIDTH 722 0
DWIDTH 27 0
BBX 25 38 2 0
BITMAP
00070000
000F8000
001F8000
001F0000
003C0000
00700000
00400000
00000000
00000000
00000000
FFFC0000
FFFC0000
0FC00000
0FC00000
0FC00000
0FC00000
0FC00000
0FC00000
0FC00000
0FC00000
0FC00000
0FC00000
0FC00000
0FC00000
0FC00000
0FC00000
0FC00000
0FC00180
0FC00180
0FC00180
0FC00380
0FC00380
0FC00780
0FC00700
0FC00F00
0FC03F00
FFFFFF00
FFFFFF00
ENDCHAR

STARTCHAR Cacute
ENCODING 198
SWIDTH 778 0
DWIDTH 30 0
BBX 24 37 3 0
BITMAP
000700
000F80
001F80
003F00
003C00
006000
004000
000000
000000
003F02
00FFE6
03E076
07C01F
0F800F
1F000F
3F0007
3F0007
7E0003
7E0003
7E0003
FE0000
FE0000
FE0000
FE0000
FE0000
FE0000
7E0000
7E0001
7F0003
3F0003
3F0003
1F8006
1F800C
0FC01C
03F078
01FFE0
007F80
ENDCHAR

STARTCHAR Ccedilla
ENCODING 199
SWIDTH 778 0
DWIDTH 30 0
BBX 24 35 3 -7
BITMAP
003F06
01FFC6
03E076
07C03E
0F801E
1F000E
3F000E
3F0006
7E0006
7E0006
7E0002
FE0000
FE0000
FE0000
FE0000
FE0000
FE0000
7E0000
7E0003
7E0003
3F0002
3F0006
1F0006
1F800C
0FC018
07E070
01FFE0
007F80
001E00
00FF00
003F00
001F00
001F00
01FE00
01F800
ENDCHAR

STARTCHAR Ccaron
ENCODING 200
SWIDTH 778 0
DWIDTH 30 0
BBX 24 37 3 0
BITMAP
030040
0181C0
00E380
00F780
00FF00
007F00
007E00
000000
000000
003F02
00FFE6
03E076
07C01F
0F800F
1F000F
3F0007
3F0007
7E0003
7E0003
7E0003
FE0000
FE0000
FE0000
FE0000
FE0000
FE0000
7E0000
7E0001
7F0003
3F0003
3F0003
1F8006
1F800C
0FC01C
03F078
01FFE0
007F80
ENDCHAR

STARTCHAR Eacute
ENCODING 201
SWIDTH 759 0
DWIDTH 29 0
BBX 25 38 1 0
BITMAP
00070000
000F8000
001F8000
001F0000
003C0000
00700000
00400000
00000000
00000000
00000000
FFFFFF00
FFFFFF00
0FC01F00
0FC00F00
0FC00700
0FC00700
0FC00300
0FC00300
0FC0C300
0FC0C100
0FC1C000
0FC1C000
0FC3C000
0FFFC000
0FFFC000
0FC3C000
0FC1C000
0FC0C000
0FC0C180
0FC0C180
0FC00180
0FC00180
0FC00380
0FC00780
0FC00F80
0FC01F80
FFFFFF80
FFFFFF80
ENDCHAR

STARTCHAR Eogonek
ENCODING 202
SWIDTH 759 0
DWIDTH 29 0
BBX 26 37 1 -9
BITMAP
FFFFFF00
FFFFFF00
0FC01F00
0FC00F00
0FC00700
0FC00300
0FC00300
0FC00300
0FC0C100
0FC0C100
0FC0C000
0FC1C000
0FC3C000
0FFFC000
0FFFC000
0FC3C000
0FC1C000
0FC0C000
0FC0C080
0FC0C180
0FC00180
0FC00180
0FC00380
0FC00780
0FC00F80
0FC01F80
FFFFFF80
FFFFEF80
00001800
00003000
00007000
00007000
00007800
00007C00
00003FC0
00001F80
00000200
ENDCHAR

STARTCHAR Edieresis
ENCODING 203
SWIDTH 759 0
DWIDTH 29 0
BBX 25 37 1 0
BITMAP
01C1C000
03E3E000
03E3E000
03E3E000
01C1C000
00000000
00000000
00000000
00000000
FFFFFF00
FFFFFF00
0FC01F00
0FC00F00
0FC00700
0FC00700
0FC00300
0FC00300
0FC0C300
0FC0C100
0FC1C000
0FC1C000
0FC3C000
0FFFC000
0FFFC000
0FC3C000
0FC1C000
0FC1C000
0FC0C180
0FC0C180
0FC00180
0FC00380
0FC00380
0FC00780
0FC00F80
0FC01F80
FFFFFF80
FFFFFF80
ENDCHAR

STARTCHAR Ecaron
ENCODING 204
SWIDTH 759 0
DWIDTH 29 0
BBX 25 38 1 0
BITMAP
03006000
0180C000
00E18000
00F78000
007F0000
007F0000
003F0000
00000000
00000000
00000000
FFFFFF00
FFFFFF00
0FC01F00
0FC00F00
0FC00700
0FC00700
0FC00300
0FC00300
0FC0C300
0FC0C100
0FC1C000
0FC1C000
0FC3C000
0FFFC000
0FFFC000
0FC3C000
0FC1C000
0FC0C000
0FC0C180
0FC0C180
0FC00180
0FC00180
0FC00380
0FC00780
0FC00F80
0FC01F80
FFFFFF80
FFFFFF80
ENDCHAR

STARTCHAR Iacute
ENCODING 205
SWIDTH 444 0
DWIDTH 17 0
BBX 14 38 1 0
BITMAP
00C0
01E0
03E0
07E0
0F80
0E00
1000
0000
0000
0000
FFFC
FFFC
0FC0
0FC0
0FC0
0FC0
0FC0
0FC0
0FC0
0FC0
0FC0
0FC0
0FC0
0FC0
0FC0
0FC0
0FC0
0FC0
0FC0
0FC0
0FC0
0FC0
0FC0
0FC0
0FC0
0FC0
FFFC
FFFC
ENDCHAR

STARTCHAR Icircumflex
ENCODING 206
SWIDTH 444 0
DWIDTH 17 0
BBX 14 38 1 0
BITMAP
0FC0
1FE0
1FE0
3CE0
3870
6010
4008
0000
0000
0000
FFFC
FFFC
0FC0
0FC0
0FC0
0FC0
0FC0
0FC0
0FC0
0FC0
0FC0
0FC0
0FC0
0FC0
0FC0
0FC0
0FC0
0FC0
0FC0
0FC0
0FC0
0FC0
0FC0
0FC0
0FC0
0FC0
FFFC
FFFC
ENDCHAR

STARTCHAR Dcaron
ENCODING 207
SWIDTH 833 0
DWIDTH 32 0
BBX 29 38 1 0
BITMAP
00C01800
00603000
0070E000
003DE000
003FC000
001FC000
001F8000
00000000
00000000
00000000
FFFFE000
FFFFFC00
0FC07E00
0FC01F80
0FC00FC0
0FC007C0
0FC007E0
0FC007E0
0FC003F0
0FC003F0
0FC003F0
0FC003F8
0FC003F8
0FC003F8
0FC003F8
0FC003F8
0FC003F8
0FC003F0
0FC003F0
0FC003F0
0FC007F0
0FC007E0
0FC007C0
0FC00FC0
0FC01F80
0FC07E00
FFFFFC00
FFFFE000
ENDCHAR

STARTCHAR Dcroat
ENCODING 208
SWIDTH 833 0
DWIDTH 32 0
BBX 29 28 1 0
BITMAP
FFFFC000
FFFFFC00
0FC07E00
0FC01F80
0FC00FC0
0FC007C0
0FC007E0
0FC007F0
0FC003F0
0FC003F0
0FC003F8
0FC003F8
0FC003F8
FFFE03F8
FFFE03F8
0FC003F8
0FC003F8
0FC003F0
0FC003F0
0FC003F0
0FC007F0
0FC007E0
0FC007C0
0FC00FC0
0FC01F80
0FC07E00
FFFFFC00
FFFFE000
ENDCHAR

STARTCHAR Nacute
ENCODING 209
SWIDTH 833 0
DWIDTH 32 0
BBX 30 38 1 0
BITMAP
0000E000
0001F000
0003E000
0007E000
00078000
001E0000
00080000
00000000
00000000
00000000
7F800FFC
7FC00FFC
0FE003F0
07F001E0
07F800C0
07F800C0
06FC00C0
06FE00C0
067F00C0
063F80C0
061F80C0
061FC0C0
060FE0C0
0607F0C0
0603F0C0
0603F8C0
0601FCC0
0600FEC0
06007FC0
06007FC0
06003FC0
06001FC0
06000FC0
060007C0
0F0007C0
1F8003C0
FFF001C0
FFF000C0
ENDCHAR

STARTCHAR Ncaron
ENCODING 210
SWIDTH 833 0
DWIDTH 32 0
BBX 30 38 1 0
BITMAP
00400800
00301800
00387000
001EF000
001FE000
000FE000
000FC000
00000000
00000000
00000000
7F800FFC
7FC00FFC
0FE003F0
07F001E0
07F800C0
07F800C0
06FC00C0
06FE00C0
067F00C0
063F80C0
061F80C0
061FC0C0
060FE0C0
0607F0C0
0603F0C0
0603F8C0
0601FCC0
0600FEC0
06007FC0
06007FC0
06003FC0
06001FC0
06000FC0
060007C0
0F0007C0
1F8003C0
FFF001C0
FFF000C0
ENDCHAR

STARTCHAR Oacute
ENCODING 211
SWIDTH 833 0
DWIDTH 32 0
BBX 28 37 2 0
BITMAP
0003C000
0007C000
0007C000
000F8000
001E0000
00380000
00000000
00000000
00000000
003FC000
01FFF000
03E07C00
07C01E00
0F801F00
1F000F80
3F000FC0
3F0007C0
7E0007E0
7E0007E0
7E0007F0
FE0007F0
FE0007F0
FE0007F0
FE0007F0
FE0007F0
FE0007F0
7E0007E0
7E0007E0
7E0007E0
3F000FC0
3F000FC0
1F000F80
0F801F00
07C03E00
03E07C00
00FFF000
001F8000
ENDCHAR

STARTCHAR Ocircumflex
ENCODING 212
SWIDTH 833 0
DWIDTH 32 0
BBX 28 37 2 0
BITMAP
001F8000
003FC000
003DC000
0079E000
00606000
00C03000
00801000
00000000
00000000
003FC000
01FFF000
03E07C00
07C01E00
0F801F00
1F000F80
3F000FC0
3F0007C0
7E0007E0
7E0007E0
7E0007F0
FE0007F0
FE0007F0
FE0007F0
FE0007F0
FE0007F0
FE0007F0
7E0007E0
7E0007E0
7E0007E0
3F000FC0
3F000FC0
1F000F80
0F801F00
07C03E00
03E07C00
00FFF000
001F8000
ENDCHAR

STARTCHAR Ohungarumlaut
ENCODING 213
SWIDTH 833 0
DWIDTH 32 0
BBX 28 37 2 0
BITMAP
00078F00
000F9F00
000F9F00
001F3E00
003C7800
0070E000
00000000
00000000
00000000
003FC000
01FFF000
03E07C00
07C01E00
0F801F00
1F000F80
3F000FC0
3F0007C0
7E0007E0
7E0007E0
7E0007F0
FE0007F0
FE0007F0
FE0007F0
FE0007F0
FE0007F0
FE0007F0
7E0007E0
7E0007E0
7E0007E0
3F000FC0
3F000FC0
1F000F80
0F801F00
07C03E00
03E07C00
00FFF000
001F8000
ENDCHAR

STARTCHAR Odieresis
ENCODING 214
SWIDTH 833 0
DWIDTH 32 0
BBX 29 37 1 0
BITMAP
00707000
00F8F800
00F8F800
00F8F800
00707000
00000000
00000000
00000000
00000000
003FC000
00FFF800
03F03E00
07C01F00
0F800F80
1F8007C0
3F0007E0
3F0007E0
7F0007F0
7E0003F0
7E0003F0
FE0003F8
FE0003F8
FE0003F8
FE0003F8
FE0003F8
FE0003F8
7E0003F0
7E0003F0
7F0007F0
3F0007E0
3F0007E0
1F800FC0
0F800F80
07C01F00
03F07E00
00FFF800
001FC000
ENDCHAR

STARTCHAR multiply
ENCODING 215
SWIDTH 650 0
DWIDTH 25 0
BBX 19 19 3 3
BITMAP
6000C0
F001E0
F803E0
7C07C0
3E0F80
1F1F00
0FBE00
07FC00
03F800
01F000
03F800
07FC00
0FBE00
1F1F00
3E0F80
7C07C0
F803E0
7001C0
200080
ENDCHAR

STARTCHAR Rcaron
ENCODING 216
SWIDTH 815 0
DWIDTH 31 0
BBX 27 38 2 0
BITMAP
00803000
00C06000
0070C000
007BC000
003F8000
003F8000
001F8000
00000000
00000000
00000000
FFFFC000
FFFFF800
0FC0FC00
0FC07E00
0FC03F00
0FC03F00
0FC03F00
0FC03F00
0FC03F00
0FC03F00
0FC07E00
0FC07C00
0FC1F800
0FFFE000
0FFF0000
0FC3E000
0FC1F000
0FC1F000
0FC0F800
0FC0F800
0FC0FC00
0FC0FC00
0FC07C60
0FC07E60
0FC07E60
0FC07FC0
FFFC3FC0
FFFC1F00
ENDCHAR

STARTCHAR Uring
ENCODING 217
SWIDTH 833 0
DWIDTH 32 0
BBX 30 38 1 0
BITMAP
00078000
000FC000
00186000
00186000
00186000
00186000
000FC000
00030000
00000000
00000000
FFFC1FFC
FFFC1FFC
0FC003F0
0FC001E0
0FC000C0
0FC000C0
0FC000C0
0FC000C0
0FC000C0
0FC000C0
0FC000C0
0FC000C0
0FC000C0
0FC000C0
0FC000C0
0FC000C0
0FC000C0
0FC000C0
0FC000C0
0FC000C0
0FC001C0
0FE001C0
07E00380
07F00780
03FC0F00
01FFFE00
00FFF800
001FE000
ENDCHAR

STARTCHAR Uacute
ENCODING 218
SWIDTH 833 0
DWIDTH 32 0
BBX 30 38 1 0
BITMAP
0000E000
0001F000
0003F000
0007E000
00078000
000E0000
00180000
00000000
00000000
00000000
FFFC0FFC
FFFC0FFC
0FC003F0
0FC001E0
0FC000C0
0FC000C0
0FC000C0
0FC000C0
0FC000C0
0FC000C0
0FC000C0
0FC000C0
0FC000C0
0FC000C0
0FC000C0
0FC000C0
0FC000C0
0FC000C0
0FC000C0
0FC000C0
0FC001C0
0FE001C0
07E00380
07F00780
03FC0F00
01FFFE00
00FFFC00
001FE000
ENDCHAR

STARTCHAR Uhungarumlaut
ENCODING 219
SWIDTH 833 0
DWIDTH 32 0
BBX 30 38 1 0
BITMAP
0001C380
0003E7C0
0007CFC0
000FCF80
001F1E00
001C3800
00202000
00000000
00000000
00000000
FFFC0FFC
FFFC0FFC
0FC003F0
0FC001E0
0FC000C0
0FC000C0
0FC000C0
0FC000C0
0FC000C0
0FC000C0
0FC000C0
0FC000C0
0FC000C0
0FC000C0
0FC000C0
0FC000C0
0FC000C0
0FC000C0
0FC000C0
0FC000C0
0FC001C0
0FE001C0
07E00380
07F00780
03FC0F00
01FFFE00
00FFFC00
001FE000
ENDCHAR

STARTCHAR Udieresis
ENCODING 220
SWIDTH 833 0
DWIDTH 32 0
BBX 29 37 1 0
BITMAP
00707000
00F8F800
00F8F800
00F8F800
00707000
00000000
00000000
00000000
00000000
FFFC1FF8
FFFC1FF8
0FC007E0
0FC003C0
0FC00180
0FC00180
0FC00180
0FC00180
0FC00180
0FC00180
0FC00180
0FC00180
0FC00180
0FC00180
0FC00180
0FC00180
0FC00180
0FC00180
0FC00180
0FC00180
0FC00380
0FC00380
07E00300
07F00700
03F81E00
01FFFC00
00FFF800
001FC000
ENDCHAR

STARTCHAR Yacute
ENCODING 221
SWIDTH 722 0
DWIDTH 27 0
BBX 27 38 0 0
BITMAP
00038000
0007C000
000FC000
000F8000
001E0000
00380000
00200000
00000000
00000000
00000000
FFF87FE0
FFF87FE0
3FC00F80
1FC00E00
0FC00E00
07E00C00
07E01C00
03F01800
03F83800
01F83000
01FC7000
00FC6000
007EE000
007EC000
003FC000
003F8000
001F8000
001F8000
001F8000
001F8000
001F8000
001F8000
001F8000
001F8000
001F8000
001F8000
01FFFC00
01FFFC00
ENDCHAR

STARTCHAR Tcommaaccent
ENCODING 222
SWIDTH 722 0
DWIDTH 27 0
BBX 26 36 1 -8
BITMAP
7FFFFF80
7FFFFF80
7C3F0F80
783F0780
703F0380
703F0380
603F0180
603F0180
603F0180
C03F00C0
C03F00C0
003F0000
003F0000
003F0000
003F0000
003F0000
003F0000
003F0000
003F0000
003F0000
003F0000
003F0000
003F0000
003F0000
003F0000
003F0000
03FFF000
03FFF000
00000000
00000000
001C0000
003E0000
001E0000
00060000
000C0000
00100000
ENDCHAR

STARTCHAR germandbls
ENCODING 223
SWIDTH 611 0
DWIDTH 23 0
BBX 20 28 2 0
BITMAP
00FC00
07FF00
0F87C0
1F03C0
1E03E0
3E03E0
3E03E0
3E03E0
3E03C0
3E07C0
3E0F00
3E3C00
3E3F00
3E03C0
3E03E0
3E01E0
3E01F0
3E01F0
3E01F0
3E01F0
3E01F0
3E01F0
3E79F0
3E79E0
3E79E0
3E79C0
FF3380
FF1F00
ENDCHAR

STARTCHAR racute
ENCODING 224
SWIDTH 519 0
DWIDTH 20 0
BBX 17 27 2 0
BITMAP
007000
00F800
01F800
03F000
038000
060000
000000
000000
000000
061E00
FE3F00
3E6780
1ECF80
1E8780
1F8700
1F8000
1F0000
1F0000
1F0000
1F0000
1F0000
1F0000
1F0000
1F0000
1F0000
FFF000
FFF000
ENDCHAR

STARTCHAR aacute
ENCODING 225
SWIDTH 611 0
DWIDTH 23 0
BBX 21 27 2 0
BITMAP
001C00
003E00
007C00
00FC00
00F000
03C000
010000
000000
000000
03F000
1FFE00
381F00
7C0F80
7C0F80
7C0F80
3C0F80
003F80
07FF80
1F0F80
7C0F80
FC0F80
F80F80
F81F80
FC3F80
FFF788
7FC7F8
1F03E0
ENDCHAR

STARTCHAR acircumflex
ENCODING 226
SWIDTH 611 0
DWIDTH 23 0
BBX 21 27 2 0
BITMAP
01F800
01FC00
03FC00
039E00
070600
060300
080100
000000
000000
03F000
1FFE00
381F00
7C0F80
7C0F80
7C0F80
3C0F80
003F80
07FF80
1F0F80
7C0F80
FC0F80
F80F80
F81F80
FC3F80
FFF788
7FC7F8
1F03E0
ENDCHAR

STARTCHAR abreve
ENCODING 227
SWIDTH 611 0
DWIDTH 23 0
BBX 21 27 2 0
BITMAP
0C0300
060600
07FE00
03FC00
03FC00
00F000
000000
000000
000000
07F800
1FFE00
381F00
7C0F80
7C0F80
7C0F80
3C0F80
003F80
07FF80
1F0F80
7C0F80
FC0F80
F80F80
F81F80
FC3F80
FFF788
7FC7F8
1F03E0
ENDCHAR

STARTCHAR adieresis
ENCODING 228
SWIDTH 611 0
DWIDTH 23 0
BBX 21 27 2 0
BITMAP
070700
0F8F80
0F8F80
0F8F80
070700
000000
000000
000000
000000
03F000
1FFE00
381F00
7C0F80
7C0F80
7C0F80
3C0F80
003F80
07FF80
1F0F80
7C0F80
FC0F80
F80F80
F81F80
FC3F80
FFF788
7FC7F8
1F03E0
ENDCHAR

STARTCHAR lacute
ENCODING 229
SWIDTH 352 0
DWIDTH 13 0
BBX 11 36 2 0
BITMAP
0380
07C0
0F80
1F80
1E00
7000
2000
0000
1F00
FF00
3F00
1F00
1F00
1F00
1F00
1F00
1F00
1F00
1F00
1F00
1F00
1F00
1F00
1F00
1F00
1F00
1F00
1F00
1F00
1F00
1F00
1F00
1F00
1F00
FFE0
FFE0
ENDCHAR

STARTCHAR cacute
ENCODING 230
SWIDTH 556 0
DWIDTH 21 0
BBX 19 27 1 0
BITMAP
003800
007C00
00FC00
00F800
01E000
038000
020000
000000
000000
00FC00
07FF00
1F0380
3E07C0
3E07C0
7C07C0
7C07C0
FC0100
FC0000
FC0000
FC0000
FC0040
7C0060
7E00C0
3E0180
3F8380
0FFE00
03F800
ENDCHAR

STARTCHAR ccedilla
ENCODING 231
SWIDTH 556 0
DWIDTH 21 0
BBX 19 25 2 -7
BITMAP
00FC00
07FF00
1F0380
3E07C0
3E07C0
7C07C0
7C07C0
FC0100
FC0000
FC0000
FC0000
FC0000
7C0060
7E00C0
3E0180
3F8300
0FFE00
02F800
01E000
07F800
01F800
00F800
01F800
0FF000
0FC000
ENDCHAR

STARTCHAR ccaron
ENCODING 232
SWIDTH 556 0
DWIDTH 21 0
BBX 19 27 1 0
BITMAP
100300
0C0600
0E1C00
07BC00
07F800
03F800
03F000
000000
000000
00FC00
07FF00
1F0380
3E07C0
3E07C0
7C07C0
7C07C0
FC0100
FC0000
FC0000
FC0000
FC0040
7C0060
7E00C0
3E0180
3F8380
0FFE00
03F800
ENDCHAR

STARTCHAR eacute
ENCODING 233
SWIDTH 574 0
DWIDTH 22 0
BBX 18 27 2 0
BITMAP
003800
007800
00F800
01F800
01E000
038000
040000
000000
000000
01F000
0FFC00
1F0E00
3E0F00
7C0780
7C0780
FC0780
FC07C0
FFFFC0
FFFFC0
FC0000
FC0000
7C0040
7C00C0
3E0180
1F0700
0FFE00
03F800
ENDCHAR

STARTCHAR eogonek
ENCODING 234
SWIDTH 574 0
DWIDTH 22 0
BBX 19 26 2 -8
BITMAP
01F800
07FE00
1F0F00
3E0780
3E0780
7C07C0
7C07C0
7C07C0
FFFFC0
FFFFC0
FC0000
7C0000
7C0060
7E00C0
3E01C0
1F8380
0FFE00
017800
00E000
01C000
01C000
01C000
01E000
01F000
00FF00
003E00
ENDCHAR

STARTCHAR edieresis
ENCODING 235
SWIDTH 574 0
DWIDTH 22 0
BBX 18 26 2 0
BITMAP
0E0E00
1F1F00
1F1F00
1F1F00
0E0E00
000000
000000
000000
01F000
07FC00
1F0F00
3E0700
3E0780
7C0780
7C07C0
7C07C0
FFFFC0
FFFFC0
FC0000
7C0000
7C0040
7E00C0
3E0180
1F8300
0FFE00
01F800
ENDCHAR

STARTCHAR ecaron
ENCODING 236
SWIDTH 574 0
DWIDTH 22 0
BBX 18 27 2 0
BITMAP
100200
180C00
0E1C00
0F3800
07F800
07F000
03F000
000000
000000
01F000
0FFC00
1F0E00
3E0F00
7C0780
7C0780
FC0780
FC07C0
FFFFC0
FFFFC0
FC0000
FC0000
7C0040
7C00C0
3E0180
1F0700
0FFE00
03F800
ENDCHAR

STARTCHAR iacute
ENCODING 237
SWIDTH 370 0
DWIDTH 14 0
BBX 11 27 2 0
BITMAP
0380
07C0
0FC0
1F00
1C00
3000
0000
0000
0000
3F00
FF00
3F00
1F00
1F00
1F00
1F00
1F00
1F00
1F00
1F00
1F00
1F00
1F00
1F00
1F00
FFE0
FFE0
ENDCHAR

STARTCHAR icircumflex
ENCODING 238
SWIDTH 370 0
DWIDTH 14 0
BBX 13 28 1 0
BITMAP
0F80
1FC0
1FC0
3DE0
38E0
6030
C018
0000
0000
0000
1F80
7F80
1F80
0F80
0F80
0F80
0F80
0F80
0F80
0F80
0F80
0F80
0F80
0F80
0F80
0F80
7FF0
7FF0
ENDCHAR

STARTCHAR dcaron
ENCODING 239
SWIDTH 754 0
DWIDTH 29 0
BBX 26 28 2 0
BITMAP
003FE300
003FEF80
0007EFC0
0003EFC0
0003E7C0
0003E0C0
0003E080
0003E100
0003E200
0003E400
07E3E000
1FFBE000
3F1DE000
3E07E000
7C07E000
7C03E000
FC03E000
FC03E000
FC03E000
FC03E000
FC03E000
FC03E000
7C07E000
7E07E000
3F0DE000
3FFBF000
1FF3FC00
03C1C000
ENDCHAR

STARTCHAR dcroat
ENCODING 240
SWIDTH 667 0
DWIDTH 25 0
BBX 22 28 2 0
BITMAP
001FE0
003FE0
0007E0
0003E0
0003E0
00FFFC
00FFFC
0003E0
0003E0
0003E0
07E3E0
1FFBE0
3F1DE0
3E07E0
7C07E0
7C03E0
FC03E0
FC03E0
FC03E0
FC03E0
FC03E0
FC03E0
7C07E0
7E07E0
3F0DE0
3FFBF0
1FF3FC
03C1C0
ENDCHAR

STARTCHAR nacute
ENCODING 241
SWIDTH 685 0
DWIDTH 26 0
BBX 23 27 2 0
BITMAP
001C00
003E00
007C00
00FC00
00F000
03C000
010000
000000
000000
020F80
FF3FC0
3F7FE0
1FC3F0
1F81F0
1F01F0
1F01F0
1F01F0
1F01F0
1F01F0
1F01F0
1F01F0
1F01F0
1F01F0
1F01F0
1F01F0
FFEFFE
FFEFFE
ENDCHAR

STARTCHAR ncaron
ENCODING 242
SWIDTH 685 0
DWIDTH 26 0
BBX 23 27 2 0
BITMAP
060180
030300
01C700
01EE00
00FE00
00FC00
00FC00
000000
000000
020F80
FF3FC0
3F7FE0
1FC3F0
1F81F0
1F01F0
1F01F0
1F01F0
1F01F0
1F01F0
1F01F0
1F01F0
1F01F0
1F01F0
1F01F0
1F01F0
FFEFFE
FFEFFE
ENDCHAR

STARTCHAR oacute
ENCODING 243
SWIDTH 611 0
DWIDTH 23 0
BBX 20 27 2 0
BITMAP
001C00
003C00
007C00
00FC00
00F000
03C000
010000
000000
000000
01F800
0FFF00
1F0F80
3E07C0
7C03E0
7C03E0
7C03F0
FC03F0
FC03F0
FC03F0
FC03F0
7C03F0
7C03E0
7E03E0
3E07C0
1F0F80
07FE00
01F800
ENDCHAR

STARTCHAR ocircumflex
ENCODING 244
SWIDTH 611 0
DWIDTH 23 0
BBX 20 27 2 0
BITMAP
01F800
01FC00
03FC00
039E00
070E00
040300
080100
000000
000000
01F800
0FFF00
1F0F80
3E07C0
7C03E0
7C03E0
7C03F0
FC03F0
FC03F0
FC03F0
FC03F0
7C03F0
7C03E0
7E03E0
3E07C0
1F0F80
07FE00
01F800
ENDCHAR

STARTCHAR ohungarumlaut
ENCODING 245
SWIDTH 611 0
DWIDTH 23 0
BBX 20 27 2 0
BITMAP
007070
0078F0
00F9F0
01F3F0
03E3C0
030F00
040400
000000
000000
01F800
0FFF00
1F0F80
3E07C0
7C03E0
7C03E0
7C03F0
FC03F0
FC03F0
FC03F0
FC03F0
7C03F0
7C03E0
7E03E0
3E07C0
1F0F80
07FE00
01F800
ENDCHAR

STARTCHAR odieresis
ENCODING 246
SWIDTH 611 0
DWIDTH 23 0
BBX 20 26 1 0
BITMAP
070700
0F8F80
0F8F80
0F8F80
070700
000000
000000
000000
01F800
0FFF00
1F0F80
3E07C0
7C03E0
7C03E0
7C03F0
FC03F0
FC03F0
FC03F0
FC03F0
7C03F0
7C03E0
7E03E0
3E07C0
1F0F80
07FE00
01F800
ENDCHAR

STARTCHAR divide
ENCODING 247
SWIDTH 606 0
DWIDTH 23 0
BBX 20 19 1 3
BITMAP
00F000
00F000
00F000
006000
000000
000000
000000
000000
FFFFF0
FFFFF0
FFFFF0
000000
000000
000000
000000
006000
00F000
00F000
007000
ENDCHAR

STARTCHAR rcaron
ENCODING 248
SWIDTH 519 0
DWIDTH 20 0
BBX 17 27 2 0
BITMAP
300400
181800
1E3800
0F7800
0FF000
07F000
07E000
000000
000000
061E00
FE3F00
3E6780
1ECF80
1E8780
1F8700
1F8000
1F0000
1F0000
1F0000
1F0000
1F0000
1F0000
1F0000
1F0000
1F0000
FFF000
FFF000
ENDCHAR

STARTCHAR uring
ENCODING 249
SWIDTH 685 0
DWIDTH 26 0
BBX 24 28 1 0
BITMAP
003800
007E00
00C300
00C300
00C300
00C300
007E00
003C00
000000
000000
1F01F8
FF07F8
3F01F8
1F00F8
1F00F8
1F00F8
1F00F8
1F00F8
1F00F8
1F00F8
1F00F8
1F00F8
1F01F8
1F81F8
0FC778
0FFEFC
07F8FF
03F07F
ENDCHAR

STARTCHAR uacute
ENCODING 250
SWIDTH 685 0
DWIDTH 26 0
BBX 23 27 1 0
BITMAP
000E00
001F00
003F00
003E00
007800
00C000
000000
000000
000000
1F01F0
FF0FF0
3F03F0
1F01F0
1F01F0
1F01F0
1F01F0
1F01F0
1F01F0
1F01F0
1F01F0
1F01F0
1F03F0
1F03F0
0F86F0
0FFDF8
07F9FE
03E0FE
ENDCHAR

STARTCHAR uhungarumlaut
ENCODING 251
SWIDTH 685 0
DWIDTH 26 0
BBX 23 27 1 0
BITMAP
001C38
003E7C
007EFC
00F9F8
00E1C0
018300
000000
000000
000000
1F01F0
FF0FF0
3F03F0
1F01F0
1F01F0
1F01F0
1F01F0
1F01F0
1F01F0
1F01F0
1F01F0
1F01F0
1F03F0
1F03F0
0F86F0
0FFDF8
07F9FE
03E0FE
ENDCHAR

STARTCHAR udieresis
ENCODING 252
SWIDTH 685 0
DWIDTH 26 0
BBX 23 27 2 0
BITMAP
038380
07C7C0
07C7C0
07C7C0
038380
000000
000000
000000
000000
1F01F0
FF0FF0
3F03F0
1F01F0
1F01F0
1F01F0
1F01F0
1F01F0
1F01F0
1F01F0
1F01F0
1F01F0
1F03F0
1F03F0
0F86F0
0FFDF8
07F9FE
03E0FE
ENDCHAR

STARTCHAR yacute
ENCODING 253
SWIDTH 611 0
DWIDTH 23 0
BBX 22 35 1 -7
BITMAP
000C00
001F00
003E00
007E00
00F800
00E000
018000
000000
000000
000000
FFE3FC
FFE3FC
3F0070
1F0060
1F8060
0F80C0
0FC0C0
07C180
03E180
03F300
01F300
01FE00
00FE00
00FC00
007C00
007800
003800
003000
003000
706000
F8E000
F8C000
F98000
7F0000
1C0000
ENDCHAR

STARTCHAR tcommaaccent
ENCODING 254
SWIDTH 426 0
DWIDTH 16 0
BBX 14 32 1 -7
BITMAP
0300
0300
0300
0700
0700
0F00
1F00
FFFC
FFFC
1F00
1F00
1F00
1F00
1F00
1F00
1F00
1F00
1F04
1F04
1F04
1F0C
1F0C
0FF8
07F0
01C0
0000
0380
07C0
07C0
00C0
0080
0300
ENDCHAR

STARTCHAR dotaccent
ENCODING 255
SWIDTH 333 0
DWIDTH 13 0
BBX 5 5 4 22
BITMAP
70
F8
F8
F8
70
ENDCHAR
ENDFONT
